HIERARCHY
ROOT Hips
{
	OFFSET 0.000000 0.000000 0.000000 
	CHANNELS 6 Xposition Yposition Zposition Yrotation Zrotation Xrotation 
	JOINT Lumbar
	{
		OFFSET 0.000000 0.000000 0.000000 
		CHANNELS 3 Zrotation Xrotation Yrotation
		JOINT Neck
		{
			OFFSET 0.000000 0.445665 0.000000 
			CHANNELS 3 Zrotation Xrotation Yrotation
			End Site
			{
				OFFSET 0.000000 0.227535 0.000000 
			}
		}
		JOINT RightShoulder
		{
			OFFSET 0.019635 0.377685 0.194865 
			CHANNELS 3 Zrotation Xrotation Yrotation
			JOINT RightElbow
			{
				OFFSET 0.000000 -0.243375 0.000000 
				CHANNELS 2 Zrotation Yrotation
				JOINT RightWrist
				{
					OFFSET 0.000000 -0.264825 0.000000 
					CHANNELS 2 Zrotation Xrotation
					End Site
					{
						OFFSET 0.006600 -0.176220 0.000990 
					}
				}
			}
		}
		JOINT LeftShoulder
		{
			OFFSET 0.019635 0.377685 -0.194865 
			CHANNELS 3 Zrotation Xrotation Yrotation
			JOINT LeftElbow
			{
				OFFSET 0.000000 -0.243375 0.000000 
				CHANNELS 2 Zrotation Yrotation
				JOINT LeftWrist
				{
					OFFSET 0.000000 -0.264825 0.000000 
					CHANNELS 2 Zrotation Xrotation
					End Site
					{
						OFFSET 0.006600 -0.176220 -0.000990 
					}
				}
			}
		}
	}
	JOINT RightHip
	{
		OFFSET 0.052140 -0.069960 0.075570 
		CHANNELS 3 Zrotation Xrotation Yrotation
		JOINT RightKnee
		{
			OFFSET 0.000000 -0.402270 0.000000 
			CHANNELS 1 Zrotation
			JOINT RightAnkle
			{
				OFFSET 0.000000 -0.404085 0.000000 
				CHANNELS 3 Zrotation Xrotation Yrotation
				End Site
				{
					OFFSET 0.204105 -0.089430 0.008415 
				}
			}
		}
	}
	JOINT LeftHip
	{
		OFFSET 0.052140 -0.069960 -0.075570 
		CHANNELS 3 Zrotation Xrotation Yrotation
		JOINT LeftKnee
		{
			OFFSET 0.000000 -0.402270 0.000000 
			CHANNELS 1 Zrotation
			JOINT LeftAnkle
			{
				OFFSET 0.000000 -0.404085 0.000000 
				CHANNELS 3 Zrotation Xrotation Yrotation
				End Site
				{
					OFFSET 0.204105 -0.089430 -0.008415 
				}
			}
		}
	}
}
MOTION
Frames: 34
Frame Time: 0.02
0.57267 0.54106 0.12181 184.00963 0 -7.24301 2.83264 4.55123 -10.08923 -32.94276 10.68681 2.59865 2.941 -65.48703 -15.51068 93.24824 113.67868 -30.33334 -7.98259 22.03623 8.52002 -37.74974 56.22035 -125.0154 -64.75127 7.74107 83.71038 -2.19273 -20.83527 -114.10482 7.14955 -1.7078 0.86981 82.92612 3.93096 0.62667 -99.38347 3.1923 -1.62443 -14.64846
0.5724 0.54154 0.12178 184.15819 0 -7.26689 3.22697 4.33501 -10.34915 -33.47033 10.69638 2.53935 2.41078 -66.03242 -17.94431 91.94314 113.29559 -29.94169 -7.96094 22.46376 8.46912 -37.48786 56.11605 -125.16976 -64.5534 7.76693 83.6359 -2.18147 -20.78454 -114.08977 7.20488 -1.72394 0.80235 82.92193 3.5265 0.35975 -99.31058 3.34488 -1.66232 -14.63846
0.57209 0.54211 0.12171 184.34368 0 -7.29533 3.64455 4.10591 -10.64577 -34.07807 10.691 2.48146 2.0972 -66.52891 -20.18429 90.42613 112.87857 -29.51586 -7.93579 22.96277 8.42684 -37.20557 56.00841 -125.3581 -64.33283 7.7981 83.54339 -2.18384 -20.73162 -114.07287 7.26912 -1.73728 0.72905 82.92526 3.06071 0.0526 -99.18904 3.52817 -1.70798 -14.62693
0.5718 0.54264 0.12166 184.50744 0 -7.31881 4.0501 3.87704 -10.91641 -34.64742 10.69628 2.42626 1.66804 -67.04904 -22.52232 88.99649 112.46809 -29.10071 -7.91173 23.43106 8.37768 -36.94167 55.90524 -125.52851 -64.12362 7.8265 83.46537 -2.16977 -20.67117 -114.05617 7.3222 -1.75382 0.65833 82.92405 2.62836 -0.22693 -99.04598 3.69645 -1.75011 -14.61537
0.57147 0.54316 0.12164 184.69304 0 -7.35427 4.46291 3.67107 -11.22534 -35.22542 10.6863 2.35642 1.31179 -67.56168 -24.81704 87.59573 112.10447 -28.70965 -7.89113 23.89248 8.34024 -36.63963 55.78983 -125.71101 -63.90919 7.85666 83.35901 -2.20041 -20.6487 -114.04368 7.40889 -1.7637 0.58593 82.92825 2.17077 -0.54745 -99.08834 3.8758 -1.79367 -14.60652
0.57123 0.54372 0.12153 184.84097 0 -7.36618 4.86552 3.41515 -11.46357 -35.80436 10.70366 2.31809 0.85332 -68.07883 -27.1576 86.08748 111.62971 -28.25937 -7.86156 24.38514 8.28067 -36.41141 55.69826 -125.87522 -63.70048 7.88423 83.30952 -2.13929 -20.54392 -114.02019 7.42335 -1.78499 0.51812 82.92195 1.75248 -0.79051 -98.73131 4.03137 -1.8344 -14.59208
0.57128 0.54437 0.12119 184.88253 0 -7.30935 5.2362 3.01875 -11.49812 -36.36498 10.80617 2.36073 0.07958 -68.62094 -29.65534 84.33909 110.87935 -27.64778 -7.81298 24.94362 8.15862 -36.39976 55.68303 -125.98784 -63.51421 7.90454 83.40425 -1.83741 -20.23604 -113.97896 7.27361 -1.85447 0.4414 82.89432 1.45043 -0.82265 -97.29959 4.18315 -1.88001 -14.55899
0.57143 0.54505 0.12078 184.88338 0 -7.22928 5.59505 2.57385 -11.46034 -36.92351 10.93548 2.43606 -0.80756 -69.16926 -32.20819 82.49024 110.01287 -26.97802 -7.75442 25.53104 8.01394 -36.46155 55.69024 -126.07947 -63.33449 7.92183 83.56039 -1.43964 -19.84095 -113.92253 7.0444 -1.93321 0.37245 82.85421 1.19186 -0.77313 -95.46636 4.29826 -1.92006 -14.5209
0.57153 0.5457 0.12041 184.89872 0 -7.16142 5.95832 2.15467 -11.45546 -37.48434 11.04859 2.50018 -1.65636 -69.71483 -34.74769 80.68554 109.18359 -26.33875 -7.69708 26.10759 7.87928 -36.48489 55.68083 -126.17576 -63.15116 7.93967 83.6993 -1.07543 -19.4704 -113.86747 6.82638 -1.9963 0.31673 82.81349 0.9179 -0.75238 -93.80403 4.38289 -1.9527 -14.48763
0.57164 0.54645 0.11997 184.93321 0 -7.08626 6.32764 1.71861 -11.45163 -38.0441 11.17838 2.54904 -2.44398 -70.25902 -37.23414 78.87966 108.41952 -25.68255 -7.65369 26.67888 7.74616 -36.52956 55.69818 -126.29359 -62.96948 7.96113 83.79115 -0.75435 -19.16378 -113.84354 6.71175 -2.10476 0.19554 82.79915 0.62203 -0.76774 -92.18153 4.66214 -2.02638 -14.44407
0.57177 0.54698 0.11967 184.91648 0 -7.02135 6.67975 1.3075 -11.42811 -38.60226 11.27973 2.63731 -3.38617 -70.80739 -39.84283 77.05516 107.49182 -25.04658 -7.57883 27.26472 7.60419 -36.54673 55.66544 -126.36143 -62.78647 7.97432 83.99753 -0.32001 -18.70293 -113.74139 6.3655 -2.12452 0.20574 82.72728 0.38455 -0.68859 -90.39052 4.53384 -2.01464 -14.4201
0.57185 0.5469 0.11976 184.7782 0 -6.98507 6.99948 0.96749 -11.36642 -39.17538 11.2982 2.8274 -4.75132 -71.37299 -42.80974 75.20548 106.14675 -24.4953 -7.42018 27.9028 7.44491 -36.47735 55.48713 -126.29386 -62.59661 7.96485 84.49151 0.39916 -17.84125 -113.50953 5.37582 -1.86591 0.63742 82.49587 0.28407 -0.36383 -88.15393 3.2291 -1.75543 -14.45718
0.57195 0.5466 0.12 184.58775 0 -6.96085 7.2997 0.65622 -11.28751 -39.74277 11.28689 3.05576 -6.26497 -71.94145 -45.89228 73.3415 104.64066 -23.96418 -7.23011 28.55019 7.27736 -36.37685 55.25843 -126.17718 -62.40597 7.94724 85.10151 1.22958 -16.82715 -113.18333 4.16032 -1.52311 1.19077 82.20797 0.24352 0.05188 -85.7766 1.52648 -1.41279 -14.51311
0.57209 0.5464 0.12017 184.41446 0 -6.9346 7.60098 0.33808 -11.21731 -40.30032 11.28773 3.26598 -7.69575 -72.50422 -48.90057 71.48385 103.20366 -23.41392 -7.05397 29.18091 7.11226 -36.28539 55.05339 -126.08423 -62.21634 7.93366 85.66715 2.01242 -15.87978 -112.84709 3.06308 -1.23986 1.64742 81.94792 0.18497 0.42396 -83.51528 0.04532 -1.11683 -14.55661
0.57206 0.54616 0.12035 184.26734 0 -6.89305 7.93562 -0.00823 -11.1409 -40.91146 11.29496 3.48073 -9.19433 -73.08593 -52.00265 69.6225 101.77722 -22.90222 -6.87883 29.86686 6.95109 -36.21649 54.84407 -125.98389 -62.0226 7.91852 86.19867 2.78726 -14.93809 -112.73668 1.89603 -0.86887 2.27504 81.67693 0.08965 0.81131 -81.01977 -1.60845 -0.78377 -14.61608
0.57237 0.54597 0.12053 184.05396 0 -6.88646 8.19528 -0.28801 -11.07426 -41.4083 11.28193 3.69443 -10.58671 -73.62851 -54.93571 67.76775 100.29532 -22.31764 -6.69444 30.43752 6.7811 -36.09421 54.63374 -125.88848 -61.83911 7.90484 86.82921 3.60237 -13.95198 -112.12998 0.82309 -0.65823 2.58053 81.41712 0.08365 1.18394 -78.98438 -2.99699 -0.50811 -14.64701
0.57361 0.54597 0.12069 183.6696 0 -6.97414 8.26127 -0.39413 -11.03884 -41.6022 11.21628 3.89806 -11.63741 -74.06405 -57.37593 65.92874 98.67303 -21.51199 -6.49081 30.70511 6.58 -35.8151 54.4123 -125.81048 -61.66698 7.89626 87.6944 4.51408 -12.86222 -110.20796 0.05498 -0.93088 1.92089 81.18797 0.31766 1.52306 -78.25243 -3.55308 -0.41265 -14.5928
0.5752 0.54603 0.12084 183.22071 0 -7.0966 8.25094 -0.43335 -11.01405 -41.67919 11.13192 4.0987 -12.57676 -74.4593 -59.64046 64.09949 97.00662 -20.63602 -6.27934 30.85309 6.37207 -35.48615 54.19506 -125.74067 -61.50817 7.88962 88.65687 5.45934 -11.73861 -107.78433 -0.60811 -1.36418 0.94072 80.97468 0.63773 1.83842 -77.99101 -3.82877 -0.3776 -14.5093
0.57663 0.54605 0.121 182.80212 0 -7.20276 8.26993 -0.50117 -10.98489 -41.80229 11.05856 4.29915 -13.5758 -74.87241 -61.98492 62.26896 95.3777 -19.80151 -6.07229 31.04394 6.17315 -35.19087 53.98963 -125.67271 -61.35466 7.88276 89.58131 6.38083 -10.6407 -105.56882 -1.31234 -1.71065 0.13817 80.76345 0.913 2.14486 -77.51685 -4.23455 -0.31409 -14.44072
0.57805 0.5461 0.12114 182.37763 0 -7.3113 8.31078 -0.57621 -10.95366 -41.95473 10.97352 4.50768 -14.54603 -75.28937 -64.3369 60.42048 93.66701 -18.92494 -5.86013 31.28291 5.949 -34.84814 53.72555 -125.57992 -61.15391 7.87288 90.48377 7.3434 -9.48671 -103.43177 -2.05305 -2.11198 -0.79232 80.51122 1.21463 2.5374 -77.03168 -4.64331 -0.25199 -14.36713
0.57956 0.54611 0.12131 181.95071 0 -7.42314 8.28836 -0.62 -10.92884 -42.01849 10.90891 4.69796 -15.54249 -75.68638 -66.62519 58.61701 92.12134 -18.12231 -5.65762 31.39401 5.77589 -34.59265 53.584 -125.54093 -61.05382 7.86977 91.45358 8.22548 -8.45245 -101.01594 -2.68897 -2.43899 -1.53745 80.34877 1.48072 2.74425 -76.68457 -4.97369 -0.2023 -14.29536
0.5813 0.54603 0.12155 181.53458 0 -7.534 8.10868 -0.59965 -10.92556 -41.86468 10.90375 4.8399 -16.68293 -76.05723 -68.81765 56.89418 91.01571 -17.51339 -5.47975 31.17312 5.74573 -34.59183 53.79131 -125.65337 -61.23615 7.88569 92.58465 8.88839 -7.68216 -97.93341 -3.06696 -2.51589 -1.6629 80.43153 1.62874 2.4387 -76.59193 -5.15734 -0.17325 -14.24734
0.5831 0.54592 0.12182 181.11861 0 -7.64708 7.86816 -0.54926 -10.92754 -41.62572 10.92014 4.96302 -17.84388 -76.40532 -70.94234 55.22555 90.0826 -16.98661 -5.31258 30.82892 5.76723 -34.68048 54.12012 -125.81921 -61.51783 7.90827 93.77949 9.46624 -7.04879 -94.59333 -3.3404 -2.51391 -1.59648 80.60396 1.7368 1.94732 -76.62469 -5.26943 -0.15475 -14.19967
0.58485 0.54581 0.12207 180.70122 0 -7.76034 7.65657 -0.50889 -10.92263 -41.42689 10.92797 5.09385 -18.96658 -76.75193 -73.07602 53.55737 89.08968 -16.44001 -5.14343 30.54673 5.76481 -34.72715 54.38567 -125.95746 -61.74903 7.92724 94.94546 10.07533 -6.402 -91.38252 -3.65742 -2.55215 -1.63828 80.73513 1.863 1.54456 -76.60873 -5.41172 -0.13118 -14.14449
0.58673 0.54574 0.12232 180.28553 0 -7.87043 7.43745 -0.4813 -10.93593 -41.21878 10.93031 5.22867 -20.2106 -77.14908 -75.30491 51.7776 88.02 -15.81616 -4.96246 30.23608 5.76371 -34.77723 54.68427 -126.10926 -62.00342 7.94861 96.11543 10.71789 -5.54582 -88.09613 -3.98956 -2.57754 -1.60396 80.86984 1.9952 1.12481 -76.5751 -5.55486 -0.11113 -14.12036
0.58833 0.54558 0.12259 179.8693 0 -7.98641 7.21987 -0.42108 -10.91386 -41.01023 10.94896 5.35009 -21.20447 -77.43357 -77.31013 50.25055 87.14754 -15.37478 -4.80795 29.95585 5.77263 -34.84262 54.9441 -126.24633 -62.23263 7.96671 97.28966 11.26895 -5.16133 -84.92059 -4.26417 -2.60882 -1.67655 81.01717 2.10071 0.69487 -76.60076 -5.68212 -0.0851 -14.03073
0.58911 0.54516 0.1229 179.4338 0 -8.12471 7.02779 -0.27608 -10.78018 -40.83051 11.01148 5.44455 -21.53343 -77.43371 -78.81075 49.3462 86.81626 -15.40722 -4.7313 29.799 5.79385 -34.92412 55.0581 -126.3214 -62.36932 7.97251 98.46994 11.59779 -6.02511 -82.04957 -4.42752 -2.67526 -2.10586 81.18698 2.17245 0.29709 -76.76801 -5.79012 -0.04319 -13.77152
0.58959 0.54465 0.12324 179.00136 0 -8.26754 6.83857 -0.09979 -10.61291 -40.65196 11.08888 5.52507 -21.60383 -77.31721 -80.06969 48.70737 86.67182 -15.62225 -4.67989 29.67533 5.82442 -35.01893 55.13171 -126.38096 -62.47607 7.97505 99.64962 11.83566 -7.36315 -79.31473 -4.53318 -2.74951 -2.6447 81.36463 2.21277 -0.10729 -76.98677 -5.88476 0.0059 -13.44455
0.59021 0.54419 0.12357 178.57957 0 -8.40372 6.64428 0.06028 -10.46943 -40.46763 11.15702 5.60853 -21.77407 -77.24081 -81.37911 47.98562 86.41495 -15.76111 -4.61173 29.53172 5.85191 -35.11075 55.22826 -126.45347 -62.59672 7.98023 100.82297 12.10851 -8.49757 -76.56101 -4.65107 -2.81979 -3.12276 81.53225 2.2471 -0.51809 -77.17381 -5.98213 0.05422 -13.14112
0.59082 0.54369 0.12387 178.10712 0 -8.55905 6.46376 0.22912 -10.29066 -40.30314 11.23692 5.70608 -22.02322 -77.21933 -82.94384 47.10016 86.27481 -15.87581 -4.56497 29.40656 5.87424 -35.19293 55.30498 -126.50444 -62.7232 7.98094 102.0278 12.40467 -9.58558 -73.61176 -4.82344 -2.88968 -3.64235 81.73 2.36513 -0.89513 -77.40008 -6.09052 0.09201 -12.86776
0.59138 0.54326 0.12424 177.74067 0 -8.67594 6.25601 0.3877 -10.1767 -40.0978 11.29497 5.7707 -22.0417 -77.05454 -83.91126 46.62584 85.94048 -16.08091 -4.48106 29.24959 5.91138 -35.29695 55.41775 -126.594 -62.82461 7.98988 103.16445 12.63256 -10.88221 -71.11135 -4.87111 -2.96263 -4.10196 81.86608 2.30255 -1.34224 -77.55587 -6.17428 0.15307 -12.51637
0.59186 0.54302 0.12482 177.66872 0 -8.68182 5.97314 0.50155 -10.25534 -39.78847 11.29411 5.75225 -21.52428 -76.53544 -83.36303 47.15822 84.96546 -16.51063 -4.27495 29.0228 5.96583 -35.45947 55.59033 -126.80869 -62.90087 8.02406 104.12542 12.68727 -12.62902 -69.77099 -4.57962 -3.04766 -4.38645 81.82579 1.74316 -1.97463 -77.49705 -6.18947 0.28135 -11.96037
0.59231 0.54286 0.12545 177.70301 0 -8.64943 5.66316 0.60543 -10.39928 -39.4371 11.26959 5.70041 -20.77537 -75.87373 -82.2067 48.10874 83.79892 -17.02158 -4.03304 28.7591 6.03886 -35.64258 55.81034 -127.05884 -62.94462 8.06621 105.01454 12.67784 -14.57041 -68.88846 -4.16689 -3.13493 -4.60471 81.72344 1.00453 -2.6771 -77.36616 -6.1814 0.43201 -11.32947
0.59278 0.54266 0.12605 177.68684 0 -8.63715 5.36512 0.7195 -10.50978 -39.09901 11.25258 5.661 -20.10896 -75.26919 -81.28241 48.90684 82.7574 -17.48119 -3.81634 28.49522 6.11669 -35.81513 56.0392 -127.28396 -62.97984 8.10365 105.92886 12.70306 -16.42875 -67.8268 -3.81592 -3.21786 -4.84262 81.65181 0.35168 -3.35152 -77.27245 -6.18694 0.56938 -10.73639
